Coordinates
version=1
nRows=19
nColumns=27
inDegrees=yes

Units are S.I. units (second, meters, Newtons, ...)
If the header above contains a line with 'inDegrees', this indicates whether rotational values are in degrees (yes) or radians (no).

endheader
time	pelvis_rotation	pelvis_tilt	pelvis_list	pelvis_tx	pelvis_ty	pelvis_tz	hip_flexion_r	hip_adduction_r	hip_rotation_r	knee_angle_r	knee_rotation_r	knee_adduction_r	knee_angle_r_beta	ankle_angle_r	subtalar_angle_r	mtp_angle_r	hip_flexion_l	hip_adduction_l	hip_rotation_l	knee_angle_l	knee_rotation_l	knee_adduction_l	knee_angle_l_beta	ankle_angle_l	subtalar_angle_l	mtp_angle_l
      3.72000000	      8.00370494	    -26.34403556	      5.57514600	     -0.00251238	      0.64030023	     -1.12319517	     88.66202486	    -46.44425572	      2.78418691	     78.57437400	      0.00000000	      9.90316678	      1.37138153	     10.77492409	      0.00000000	      0.00000000	     85.24516410	    -29.33546914	      0.35993033	     72.58111876	      0.00000000	     -9.91282993	      1.26677950	      7.90141335	      0.00000000	      0.00000000
      3.72500000	      8.07101585	    -26.33128887	      5.55045769	     -0.00257754	      0.63868228	     -1.12318604	     88.90740060	    -46.54120634	      2.95900355	     78.86050605	      0.00000000	      9.90408874	      1.37637548	     10.81563842	      0.00000000	      0.00000000	     85.54997948	    -29.36850166	      0.52789922	     72.88406827	      0.00000000	     -9.91401715	      1.27206696	      7.93404378	      0.00000000	      0.00000000
      3.73000000	      8.12361752	    -26.34632796	      5.53182766	     -0.00263485	      0.63703566	     -1.12312888	     89.20060341	    -46.61341270	      3.16344694	     79.16087766	      0.00000000	      9.90467874	      1.38161795	     10.94206978	      0.00000000	      0.00000000	     85.87508698	    -29.41661660	      0.68688946	     73.18630215	      0.00000000	     -9.91506172	      1.27734194	      7.97538987	      0.00000000	      0.00000000
      3.73500000	      8.18656298	    -26.40144147	      5.52901781	     -0.00274433	      0.63534205	     -1.12309003	     89.57180510	    -46.68853393	      3.40348121	     79.46951424	      0.00000000	      9.90536066	      1.38700468	     11.01293894	      0.00000000	      0.00000000	     86.25038316	    -29.45658709	      0.84429213	     73.50176904	      0.00000000	     -9.91602940	      1.28284788	      8.01287628	      0.00000000	      0.00000000
      3.74000000	      8.20801212	    -26.40448000	      5.51640128	     -0.00279130	      0.63365454	     -1.12302556	     89.88581775	    -46.72716133	      3.65497984	     79.78090532	      0.00000000	      9.90607044	      1.39243948	     11.09402701	      0.00000000	      0.00000000	     86.55612675	    -29.54044460	      0.97443047	     73.81212394	      0.00000000	     -9.91701748	      1.28826459	      8.03076073	      0.00000000	      0.00000000
      3.74500000	      8.28007558	    -26.38288801	      5.49887650	     -0.00276103	      0.63196151	     -1.12294307	     90.13914159	    -46.82604679	      3.85733860	     80.08899459	      0.00000000	      9.90683780	      1.39781665	     11.20033554	      0.00000000	      0.00000000	     86.85887255	    -29.58377518	      1.13504588	     74.12096513	      0.00000000	     -9.91800345	      1.29365489	      8.05867810	      0.00000000	      0.00000000
      3.75000000	      8.32055245	    -26.42573413	      5.48472750	     -0.00282817	      0.63028044	     -1.12284635	     90.48262392	    -46.86578200	      4.09711828	     80.39766811	      0.00000000	      9.90737324	      1.40320402	     11.28666103	      0.00000000	      0.00000000	     87.20910859	    -29.64096295	      1.29552314	     74.42396401	      0.00000000	     -9.91888717	      1.29894321	      8.09317262	      0.00000000	      0.00000000
      3.75500000	      8.38399851	    -26.39154214	      5.46047200	     -0.00275200	      0.62860210	     -1.12272073	     90.71216770	    -46.95659046	      4.28885146	     80.70539037	      0.00000000	      9.90811215	      1.40857479	     11.39037412	      0.00000000	      0.00000000	     87.49719044	    -29.69533778	      1.45668444	     74.72650850	      0.00000000	     -9.91987248	      1.30422361	      8.10389309	      0.00000000	      0.00000000
      3.76000000	      8.42330079	    -26.43407247	      5.44960620	     -0.00281565	      0.62691004	     -1.12258216	     91.06406021	    -46.98764983	      4.54442628	     81.02165114	      0.00000000	      9.90874412	      1.41409458	     11.48471530	      0.00000000	      0.00000000	     87.84435002	    -29.75214532	      1.61967213	     75.02385819	      0.00000000	     -9.92068805	      1.30941334	      8.13785113	      0.00000000	      0.00000000
      3.76500000	      8.50696103	    -26.43091217	      5.42766942	     -0.00273223	      0.62526523	     -1.12244724	     91.31868833	    -47.09113872	      4.72440091	     81.32326351	      0.00000000	      9.90932109	      1.41935871	     11.57258282	      0.00000000	      0.00000000	     88.16282611	    -29.78217992	      1.79384187	     75.32123325	      0.00000000	     -9.92158090	      1.31460352	      8.16076762	      0.00000000	      0.00000000
      3.77000000	      8.52890098	    -26.44148641	      5.39763490	     -0.00272772	      0.62361211	     -1.12226102	     91.60591081	    -47.10686822	      4.94950244	     81.63407990	      0.00000000	      9.90987248	      1.42478348	     11.67917805	      0.00000000	      0.00000000	     88.47452603	    -29.86096411	      1.96012350	     75.60987095	      0.00000000	     -9.92241233	      1.31964120	      8.18244428	      0.00000000	      0.00000000
      3.77500000	      8.58615171	    -26.44551309	      5.37826200	     -0.00266969	      0.62198313	     -1.12209152	     91.88007508	    -47.16730609	      5.15754520	     81.93572021	      0.00000000	      9.91041467	      1.43004809	     11.76386025	      0.00000000	      0.00000000	     88.78485797	    -29.92023172	      2.11161907	     75.89255711	      0.00000000	     -9.92325063	      1.32457500	      8.18540273	      0.00000000	      0.00000000
      3.78000000	      8.67474703	    -26.42894884	      5.36776286	     -0.00258267	      0.62035378	     -1.12190705	     92.12722225	    -47.26432854	      5.35582450	     82.23802045	      0.00000000	      9.91100536	      1.43532423	     11.86763038	      0.00000000	      0.00000000	     89.07392989	    -29.93911610	      2.27984586	     76.17121030	      0.00000000	     -9.92408369	      1.32943842	      8.21704389	      0.00000000	      0.00000000
      3.78500000	      8.74668628	    -26.41510013	      5.32838573	     -0.00250335	      0.61873964	     -1.12168707	     92.34502901	    -47.33947795	      5.52212178	     82.53344553	      0.00000000	      9.91161559	      1.44048037	     11.97113279	      0.00000000	      0.00000000	     89.38067198	    -29.98037416	      2.46799700	     76.44406132	      0.00000000	     -9.92482994	      1.33420056	      8.20754365	      0.00000000	      0.00000000
      3.79000000	      8.75875465	    -26.42563060	      5.31082032	     -0.00244759	      0.61708702	     -1.12146926	     92.65243326	    -47.34649163	      5.76872925	     82.84960598	      0.00000000	      9.91202179	      1.44599841	     12.07379261	      0.00000000	      0.00000000	     89.67921795	    -30.08660712	      2.59378636	     76.72729902	      0.00000000	     -9.92558613	      1.33914399	      8.22436946	      0.00000000	      0.00000000
      3.79500000	      8.85263840	    -26.40531119	      5.30827219	     -0.00241053	      0.61545794	     -1.12125957	     92.90921546	    -47.43856796	      5.98683159	     83.14986519	      0.00000000	      9.91252050	      1.45123892	     12.17050236	      0.00000000	      0.00000000	     89.95839206	    -30.08692253	      2.76339335	     76.99045941	      0.00000000	     -9.92632347	      1.34373701	      8.24163275	      0.00000000	      0.00000000
      3.80000000	      8.84894352	    -26.40335034	      5.26029642	     -0.00235946	      0.61380836	     -1.12100551	     93.16307606	    -47.41817927	      6.20341609	     83.45371753	      0.00000000	      9.91278561	      1.45654214	     12.26540713	      0.00000000	      0.00000000	     90.25882877	    -30.21070278	      2.91983314	     77.27189932	      0.00000000	     -9.92712350	      1.34864906	      8.25744072	      0.00000000	      0.00000000
      3.80500000	      8.94953691	    -26.38498868	      5.23498064	     -0.00229202	      0.61215404	     -1.12079223	     93.39340689	    -47.52128424	      6.38118771	     83.75644275	      0.00000000	      9.91342354	      1.46182570	     12.36411328	      0.00000000	      0.00000000	     90.56840433	    -30.21595134	      3.11637431	     77.54614251	      0.00000000	     -9.92782446	      1.35343551	      8.26469452	      0.00000000	      0.00000000
      3.81000000	      8.97178864	    -26.36741746	      5.19451915	     -0.00224867	      0.61049565	     -1.12052998	     93.63755593	    -47.53264304	      6.59214888	     84.06302099	      0.00000000	      9.91382279	      1.46717650	     12.46533540	      0.00000000	      0.00000000	     90.85942721	    -30.30382112	      3.28425464	     77.82138213	      0.00000000	     -9.92857440	      1.35823935	      8.27730274	      0.00000000	      0.00000000
